<svg width="20" height="14" viewBox="0 0 20 14" fill="none" xmlns="http://www.w3.org/2000/svg">
<path d="M17.5333 3.21665H8.73333C8.28889 3.21665 7.86667 3.34998 7.46667 3.61665C7.37778 2.94998 7.1 2.40554 6.63333 1.98332C6.16667 1.56109 5.62222 1.34998 5 1.34998C4.51111 1.34998 4.06667 1.46109 3.66667 1.68332V0.683316C3.66667 0.505539 3.61111 0.361094 3.5 0.249983C3.38889 0.138872 3.24444 0.0833168 3.06667 0.0833168H0.6C0.422222 0.0833168 0.277778 0.138872 0.166667 0.249983C0.0555556 0.361094 0 0.505539 0 0.683316V13.2167C0 13.3944 0.0555556 13.5389 0.166667 13.65C0.277778 13.7611 0.422222 13.8167 0.6 13.8167H3.06667C3.24444 13.8167 3.38889 13.7611 3.5 13.65C3.61111 13.5389 3.66667 13.3944 3.66667 13.2167V11.2833H16.3333V13.2167C16.3333 13.3944 16.3889 13.5389 16.5 13.65C16.6111 13.7611 16.7556 13.8167 16.9333 13.8167H19.4C19.5778 13.8167 19.7222 13.7611 19.8333 13.65C19.9444 13.5389 20 13.3944 20 13.2167V5.68332C20 5.01665 19.7556 4.43887 19.2667 3.94998C18.7778 3.46109 18.2 3.21665 17.5333 3.21665ZM5 2.48332C5.35556 2.48332 5.65556 2.61665 5.9 2.88332C6.14444 3.14998 6.26667 3.46109 6.26667 3.81665C6.26667 4.17221 6.14444 4.47221 5.9 4.71665C5.65556 4.96109 5.35556 5.08332 5 5.08332C4.64444 5.08332 4.33333 4.96109 4.06667 4.71665C3.8 4.47221 3.66667 4.17221 3.66667 3.81665C3.66667 3.46109 3.8 3.14998 4.06667 2.88332C4.33333 2.61665 4.64444 2.48332 5 2.48332ZM3.66667 5.88332C4.06667 6.14998 4.5 6.28332 4.96667 6.28332C5.43333 6.28332 5.86667 6.14998 6.26667 5.88332V7.61665H3.66667V5.88332ZM18.8 12.6167H17.4667V10.6833C17.4667 10.55 17.4111 10.4278 17.3 10.3167C17.1889 10.2055 17.0667 10.15 16.9333 10.15H3.06667C2.93333 10.15 2.81111 10.2055 2.7 10.3167C2.58889 10.4278 2.53333 10.55 2.53333 10.6833V12.6167H1.2V1.28332H2.53333V8.21665C2.53333 8.34998 2.58889 8.48332 2.7 8.61665C2.81111 8.74998 2.93333 8.81665 3.06667 8.81665H18.8V12.6167ZM18.8 7.61665H7.46667V5.68332C7.46667 5.32776 7.58889 5.02776 7.83333 4.78332C8.07778 4.53887 8.37778 4.41665 8.73333 4.41665H17.5333C17.8889 4.41665 18.1889 4.53887 18.4333 4.78332C18.6778 5.02776 18.8 5.32776 18.8 5.68332V7.61665Z" fill="white"/>
</svg>
