<svg width="21" height="14" viewBox="0 0 21 14" fill="none" xmlns="http://www.w3.org/2000/svg">
<path d="M18.3633 3.23667H9.56329C9.11884 3.23667 8.69662 3.37 8.29662 3.63667C8.20773 2.97 7.92996 2.42556 7.46329 2.00334C6.99662 1.58111 6.45218 1.37 5.82996 1.37C5.34107 1.37 4.89662 1.48111 4.49662 1.70334V0.703336C4.49662 0.525558 4.44107 0.381114 4.32996 0.270002C4.21885 0.158892 4.0744 0.103336 3.89662 0.103336H1.42996C1.25218 0.103336 1.10773 0.158892 0.996623 0.270002C0.885512 0.381114 0.829956 0.525558 0.829956 0.703336V13.2367C0.829956 13.4144 0.885512 13.5589 0.996623 13.67C1.10773 13.7811 1.25218 13.8367 1.42996 13.8367H3.89662C4.0744 13.8367 4.21885 13.7811 4.32996 13.67C4.44107 13.5589 4.49662 13.4144 4.49662 13.2367V11.3033H17.1633V13.2367C17.1633 13.4144 17.2188 13.5589 17.33 13.67C17.4411 13.7811 17.5855 13.8367 17.7633 13.8367H20.23C20.4077 13.8367 20.5522 13.7811 20.6633 13.67C20.7744 13.5589 20.83 13.4144 20.83 13.2367V5.70334C20.83 5.03667 20.5855 4.45889 20.0966 3.97C19.6077 3.48111 19.03 3.23667 18.3633 3.23667ZM5.82996 2.50334C6.18551 2.50334 6.48551 2.63667 6.72996 2.90334C6.9744 3.17 7.09662 3.48111 7.09662 3.83667C7.09662 4.19223 6.9744 4.49222 6.72996 4.73667C6.48551 4.98111 6.18551 5.10334 5.82996 5.10334C5.4744 5.10334 5.16329 4.98111 4.89662 4.73667C4.62996 4.49222 4.49662 4.19223 4.49662 3.83667C4.49662 3.48111 4.62996 3.17 4.89662 2.90334C5.16329 2.63667 5.4744 2.50334 5.82996 2.50334ZM4.49662 5.90334C4.89662 6.17 5.32996 6.30334 5.79662 6.30334C6.26329 6.30334 6.69662 6.17 7.09662 5.90334V7.63667H4.49662V5.90334ZM19.63 12.6367H18.2966V10.7033C18.2966 10.57 18.2411 10.4478 18.13 10.3367C18.0188 10.2256 17.8966 10.17 17.7633 10.17H3.89662C3.76329 10.17 3.64107 10.2256 3.52996 10.3367C3.41885 10.4478 3.36329 10.57 3.36329 10.7033V12.6367H2.02996V1.30334H3.36329V8.23667C3.36329 8.37 3.41885 8.50334 3.52996 8.63667C3.64107 8.77 3.76329 8.83667 3.89662 8.83667H19.63V12.6367ZM19.63 7.63667H8.29662V5.70334C8.29662 5.34778 8.41885 5.04778 8.66329 4.80334C8.90773 4.55889 9.20773 4.43667 9.56329 4.43667H18.3633C18.7188 4.43667 19.0188 4.55889 19.2633 4.80334C19.5077 5.04778 19.63 5.34778 19.63 5.70334V7.63667Z" fill="#1A1A1A"/>
</svg>
