<svg width="21" height="21" viewBox="0 0 21 21" fill="none" xmlns="http://www.w3.org/2000/svg">
<path d="M20.9502 11.0833C20.9502 10.5944 20.7835 10.1833 20.4502 9.84995C20.1169 9.51661 19.7058 9.34995 19.2169 9.34995H4.08353V3.94995C4.08353 3.5055 4.23908 3.12772 4.5502 2.81661C4.77242 2.59439 5.02797 2.46106 5.31686 2.41661C5.60575 2.37217 5.90575 2.39439 6.21686 2.48328C5.81686 3.1055 5.66131 3.79439 5.7502 4.54995C5.83908 5.3055 6.1502 5.94995 6.68353 6.48328L6.81686 6.68328C6.9502 6.77217 7.09464 6.81661 7.2502 6.81661C7.40575 6.81661 7.52797 6.77217 7.61686 6.68328L11.4169 2.88328C11.5502 2.74995 11.6169 2.6055 11.6169 2.44995C11.6169 2.29439 11.5502 2.14995 11.4169 2.01661L11.2835 1.88328C10.7058 1.3055 10.0058 0.994389 9.18353 0.949945C8.36131 0.905501 7.63908 1.12772 7.01686 1.61661C6.48353 1.3055 5.90575 1.18328 5.28353 1.24995C4.66131 1.31661 4.12797 1.57217 3.68353 2.01661C3.1502 2.54995 2.88353 3.19439 2.88353 3.94995V9.34995H2.68353C2.19464 9.34995 1.78353 9.51661 1.4502 9.84995C1.11686 10.1833 0.950195 10.5944 0.950195 11.0833C0.950195 11.4833 1.06131 11.8277 1.28353 12.1166C1.50575 12.4055 1.77242 12.6166 2.08353 12.7499V14.0166C2.08353 15.0833 2.37242 16.0611 2.9502 16.9499C3.52797 17.8388 4.26131 18.5277 5.1502 19.0166L4.61686 20.0833C4.52797 20.2611 4.51686 20.4166 4.58353 20.5499C4.6502 20.6833 4.7502 20.7944 4.88353 20.8833C5.01686 20.9722 5.16131 20.9833 5.31686 20.9166C5.47242 20.8499 5.59464 20.7499 5.68353 20.6166L6.28353 19.4166C6.72797 19.5055 7.19464 19.5499 7.68353 19.5499H14.2169C14.7058 19.5499 15.1724 19.5055 15.6169 19.4166L16.2169 20.6166C16.3058 20.7499 16.428 20.8499 16.5835 20.9166C16.7391 20.9833 16.8835 20.9722 17.0169 20.8833C17.1502 20.7944 17.2502 20.6833 17.3169 20.5499C17.3835 20.4166 17.3724 20.2611 17.2835 20.0833L16.7502 19.0166C17.6391 18.5277 18.3724 17.8388 18.9502 16.9499C19.528 16.0611 19.8169 15.0833 19.8169 14.0166V12.7499C20.128 12.6166 20.3946 12.4055 20.6169 12.1166C20.8391 11.8277 20.9502 11.4833 20.9502 11.0833ZM10.1502 2.48328L7.28353 5.41661C6.97242 4.97217 6.83908 4.5055 6.88353 4.01661C6.92797 3.52772 7.12797 3.1055 7.48353 2.74995C7.83908 2.39439 8.27242 2.19439 8.78353 2.14995C9.29464 2.1055 9.7502 2.21661 10.1502 2.48328ZM2.68353 10.5499H19.2169C19.3502 10.5499 19.4724 10.6055 19.5835 10.7166C19.6946 10.8277 19.7502 10.9611 19.7502 11.1166C19.7502 11.2722 19.6946 11.4055 19.5835 11.5166C19.4724 11.6277 19.3502 11.6833 19.2169 11.6833H2.68353C2.5502 11.6833 2.42797 11.6277 2.31686 11.5166C2.20575 11.4055 2.1502 11.2722 2.1502 11.1166C2.1502 10.9611 2.20575 10.8277 2.31686 10.7166C2.42797 10.6055 2.5502 10.5499 2.68353 10.5499ZM18.6169 14.0166C18.6169 14.8166 18.4169 15.5499 18.0169 16.2166C17.6169 16.8833 17.0835 17.4166 16.4169 17.8166C15.7502 18.2166 15.0169 18.4166 14.2169 18.4166H7.68353C6.88353 18.4166 6.1502 18.2166 5.48353 17.8166C4.81686 17.4166 4.28353 16.8833 3.88353 16.2166C3.48353 15.5499 3.28353 14.8166 3.28353 14.0166V12.8833H18.6169V14.0166ZM9.41686 6.88328C9.41686 7.06106 9.47242 7.2055 9.58353 7.31661C9.69464 7.42772 9.82797 7.48328 9.98353 7.48328C10.1391 7.48328 10.2724 7.42772 10.3835 7.31661C10.4946 7.2055 10.5502 7.06106 10.5502 6.88328C10.5502 6.7055 10.4946 6.56106 10.3835 6.44995C10.2724 6.33884 10.1391 6.28328 9.98353 6.28328C9.82797 6.28328 9.69464 6.33884 9.58353 6.44995C9.47242 6.56106 9.41686 6.7055 9.41686 6.88328ZM11.0835 5.21661C11.0835 5.39439 11.1391 5.53884 11.2502 5.64995C11.3613 5.76106 11.4946 5.81661 11.6502 5.81661C11.8058 5.81661 11.9391 5.76106 12.0502 5.64995C12.1613 5.53884 12.2169 5.39439 12.2169 5.21661C12.2169 5.03884 12.1613 4.89439 12.0502 4.78328C11.9391 4.67217 11.8058 4.61661 11.6502 4.61661C11.4946 4.61661 11.3613 4.67217 11.2502 4.78328C11.1391 4.89439 11.0835 5.03884 11.0835 5.21661ZM11.4835 7.28328C11.4835 7.41661 11.5391 7.54995 11.6502 7.68328C11.7613 7.81661 11.8946 7.88328 12.0502 7.88328C12.2058 7.88328 12.3391 7.81661 12.4502 7.68328C12.5613 7.54995 12.6169 7.4055 12.6169 7.24995C12.6169 7.09439 12.5613 6.96106 12.4502 6.84995C12.3391 6.73884 12.2058 6.68328 12.0502 6.68328C11.8946 6.68328 11.7613 6.73884 11.6502 6.84995C11.5391 6.96106 11.4835 7.1055 11.4835 7.28328Z" fill="white"/>
</svg>
